HIERARCHY
ROOT Hips
{
	OFFSET 0.000000 0.000000 0.000000
	CHANNELS 6 Xposition Yposition Zposition Zrotation Yrotation Xrotation 
	JOINT LeftUpLeg_virtual
	{
		OFFSET 0.000000 0.000000 0.000000
		CHANNELS 3 Zrotation Yrotation Xrotation
		JOINT LeftUpLeg
		{
			OFFSET 8.479694 -4.795517 -0.379053
			CHANNELS 3 Zrotation Yrotation Xrotation
			JOINT LeftLeg
			{
				OFFSET 0.485052 -32.551468 0.112863
				CHANNELS 3 Zrotation Yrotation Xrotation
				JOINT LeftFoot
				{
					OFFSET 0.438033 -32.635670 -3.012641
					CHANNELS 3 Zrotation Yrotation Xrotation
					JOINT LeftToeBase
					{
						OFFSET 0.970169 -13.225353 11.864223
						CHANNELS 3 Zrotation Yrotation Xrotation
						End Site
						{
							OFFSET 0.000000 0.000000 0.000000
						}
					}
				}
			}
		}
	}
	JOINT RightUpLeg_virtual
	{
		OFFSET 0.000000 0.000000 0.000000
		CHANNELS 3 Zrotation Yrotation Xrotation
		JOINT RightUpLeg
		{
			OFFSET -8.479694 -4.795517 -0.379053
			CHANNELS 3 Zrotation Yrotation Xrotation
			JOINT RightLeg
			{
				OFFSET -0.484100 -32.551483 0.112903
				CHANNELS 3 Zrotation Yrotation Xrotation
				JOINT RightFoot
				{
					OFFSET -0.438985 -32.635651 -3.012681
					CHANNELS 3 Zrotation Yrotation Xrotation
					JOINT RightToeBase
					{
						OFFSET -0.970169 -13.225354 11.864223
						CHANNELS 3 Zrotation Yrotation Xrotation
						End Site
						{
							OFFSET 0.000000 0.000000 0.000000
						}
					}
				}
			}
		}
	}
	JOINT Spine_virtual
	{
		OFFSET 0.000000 0.000000 0.000000
		CHANNELS 3 Zrotation Yrotation Xrotation
		JOINT Spine
		{
			OFFSET 0.000000 7.722015 1.166203
			CHANNELS 3 Zrotation Yrotation Xrotation
			JOINT Spine1
			{
				OFFSET 0.000000 12.024086 0.248766
				CHANNELS 3 Zrotation Yrotation Xrotation
				JOINT Spine2
				{
					OFFSET -0.000000 11.503036 -0.491240
					CHANNELS 3 Zrotation Yrotation Xrotation
					JOINT Neck_virtual
					{
						OFFSET 0.000000 0.000000 0.000000
						CHANNELS 3 Zrotation Yrotation Xrotation
						JOINT Neck
						{
							OFFSET 0.000000 18.430687 -3.123054
							CHANNELS 3 Zrotation Yrotation Xrotation
							JOINT Head
							{
								OFFSET -0.000000 9.051071 1.034021
								CHANNELS 3 Zrotation Yrotation Xrotation
								End Site
								{
									OFFSET 0.000000 0.000000 0.000000
								}
							}
						}
					}
					JOINT LeftShoulder_virtual
					{
						OFFSET 0.000000 0.000000 0.000000
						CHANNELS 3 Zrotation Yrotation Xrotation
						JOINT LeftShoulder
						{
							OFFSET 6.197824 13.665230 -4.064723
							CHANNELS 3 Zrotation Yrotation Xrotation
							JOINT LeftArm
							{
								OFFSET 7.778132 -0.187073 -1.709282
								CHANNELS 3 Zrotation Yrotation Xrotation
								JOINT LeftForeArm
								{
									OFFSET 21.954697 0.000000 -2.041093
									CHANNELS 3 Zrotation Yrotation Xrotation
									JOINT LeftHand
									{
										OFFSET 22.992908 0.000000 -0.870901
										CHANNELS 3 Zrotation Yrotation Xrotation
										End Site
										{
											OFFSET 0.000000 0.000000 0.000000
										}
									}
								}
							}
						}
					}
					JOINT RightShoulder_virtual
					{
						OFFSET 0.000000 0.000000 0.000000
						CHANNELS 3 Zrotation Yrotation Xrotation
						JOINT RightShoulder
						{
							OFFSET -6.197824 13.665230 -4.064723
							CHANNELS 3 Zrotation Yrotation Xrotation
							JOINT RightArm
							{
								OFFSET -7.778132 -0.187073 -1.709282
								CHANNELS 3 Zrotation Yrotation Xrotation
								JOINT RightForeArm
								{
									OFFSET -21.954697 0.000000 -2.041093
									CHANNELS 3 Zrotation Yrotation Xrotation
									JOINT RightHand
									{
										OFFSET -22.992908 0.000000 -0.870901
										CHANNELS 3 Zrotation Yrotation Xrotation
										End Site
										{
											OFFSET 0.000000 0.000000 0.000000
										}
									}
								}
							}
						}
					}
				}
			}
		}
	}
}
MOTION
Frames: 12
Frame Time: 0.033333
14.367322 82.103203 -17.380417 179.759842 -26.225785 179.796042 -1.785965 1.798060 21.411846 9.244184 -2.501702 -31.161341 1.058050 0.839423 21.143967 -2.561509 -6.616228 -4.830853 0.000000 0.000000 0.000000 3.105237 -0.055747 21.291431 -1.458129 -3.976173 -31.911883 1.453378 4.197886 25.262650 9.853467 5.208856 -5.805487 0.000000 0.000000 0.000000 4.081674 3.131786 17.603018 0.635846 -1.705130 7.941918 0.995672 -2.577648 6.639013 0.093808 0.179473 -0.048906 1.262533 -1.920349 7.005563 -3.319021 -2.335608 -20.461326 0.000000 0.000000 0.000000 2.924814 -1.241179 3.750404 6.750817 -3.464231 1.881397 15.513644 -46.042541 -34.758122 11.942691 -86.996584 3.876292 0.000000 0.000000 0.000000 -2.050390 0.787990 2.431255 12.931290 15.516305 1.346650 -17.928258 35.034322 -44.492265 -175.682984 59.227145 -177.471906 0.000000 0.000000 0.000000 
13.985817 82.131157 -17.883417 179.789922 -25.637004 179.815330 -1.733078 1.862712 21.179317 9.030821 -2.564057 -30.310552 1.384236 1.095411 21.259666 -2.675849 -6.633959 -5.351145 0.000000 0.000000 0.000000 3.096457 0.070151 20.964383 -1.466424 -3.841472 -31.075650 1.349793 4.395672 25.073703 10.212478 5.107755 -5.926115 0.000000 0.000000 0.000000 4.102108 3.304379 16.666068 0.925859 -1.555011 6.927414 1.124494 -2.446792 6.797201 0.053426 0.340619 -0.057741 1.400136 -1.874948 7.211545 -2.460664 -2.423662 -19.403975 0.000000 0.000000 0.000000 3.127701 -1.247231 3.946783 5.833513 -2.918654 1.778546 8.693945 -43.445822 -34.910251 11.246475 -86.770928 4.088951 0.000000 0.000000 0.000000 -1.885744 0.799204 2.608755 12.675524 14.005308 0.955120 -12.334149 35.638790 -42.398317 -174.449916 59.701618 -176.971335 0.000000 0.000000 0.000000 
13.464436 82.150208 -18.503561 179.853361 -25.937872 179.793201 -1.663377 1.708798 20.855551 8.875211 -2.997607 -29.506844 1.771893 1.204350 21.565482 -2.730593 -6.760919 -5.803406 0.000000 0.000000 0.000000 3.105954 0.008141 20.707650 -1.450530 -3.787145 -30.137486 1.244897 4.381132 24.997529 10.547752 4.894407 -6.254607 0.000000 0.000000 0.000000 4.413458 3.121330 15.621923 1.386383 -1.683422 5.871319 1.185008 -2.647765 6.919059 0.028753 0.139813 -0.057684 1.477151 -1.893319 7.439000 -1.438338 -2.198369 -18.138349 0.000000 0.000000 0.000000 3.159303 -1.222214 4.010413 4.880145 -2.238691 1.717926 1.372492 -40.324262 -34.976784 14.382087 -87.941957 0.870614 0.000000 0.000000 0.000000 -1.857352 0.799720 2.741950 12.790338 12.712501 0.702996 -5.917409 35.694558 -39.883039 -173.187820 60.100426 -176.437897 0.000000 0.000000 0.000000 
12.842244 82.133057 -19.184467 179.909519 -25.714066 179.874425 -1.614244 1.692522 20.564880 8.594354 -3.415883 -28.716974 2.152213 1.446654 22.052483 -2.544522 -6.818154 -6.291175 0.000000 0.000000 0.000000 3.037561 -0.044947 20.372320 -1.526762 -3.606920 -29.245115 1.131700 4.631203 25.119967 10.983390 4.736259 -6.604105 0.000000 0.000000 0.000000 4.639705 3.032224 14.460207 1.817316 -1.669859 4.768940 1.248407 -2.729834 7.028307 0.000595 0.098439 -0.046517 1.537074 -1.887430 7.546933 -0.377956 -2.139751 -16.883106 0.000000 0.000000 0.000000 3.155550 -1.296513 4.176665 3.866803 -1.723183 1.619482 -6.291340 -36.896303 -34.631702 165.886389 -89.669572 -150.277412 0.000000 0.000000 0.000000 -1.852846 0.773423 2.917702 13.212151 11.475445 0.587739 0.973445 35.497149 -37.075192 -171.923033 60.565610 -175.906686 0.000000 0.000000 0.000000 
12.167207 82.083618 -19.868307 -179.981359 -25.303146 179.836763 -1.606942 1.530966 20.351112 8.162506 -3.540106 -27.921412 2.502080 1.698179 22.541868 -2.206030 -6.896511 -6.779860 0.000000 0.000000 0.000000 2.890134 -0.203408 20.087177 -1.673456 -3.308789 -28.381762 0.980731 5.102951 25.366535 11.411337 4.561691 -7.015182 0.000000 0.000000 0.000000 4.864217 2.884111 13.492742 2.305455 -1.629232 3.791335 1.334904 -2.820078 7.127908 0.077603 0.059568 -0.031639 1.480023 -2.035274 7.675134 0.708616 -2.000343 -15.442771 0.000000 0.000000 0.000000 3.063552 -1.373887 4.180852 2.593525 -1.319140 1.710606 -13.673172 -33.019187 -34.060374 -172.225392 -86.972624 -171.377533 0.000000 0.000000 0.000000 -1.957874 0.684751 3.056931 14.003158 10.254092 0.572842 7.861499 34.887445 -34.568523 -170.676865 61.125521 -175.352457 0.000000 0.000000 0.000000 
11.473758 81.997543 -20.503328 -179.915871 -24.537919 179.896678 -1.600665 1.528127 20.171960 7.672497 -3.545102 -27.241731 2.847115 2.105291 23.067579 -1.674884 -6.900552 -7.362742 0.000000 0.000000 0.000000 2.743194 -0.207746 19.841744 -1.850586 -2.710274 -27.664336 0.843207 5.707698 25.711984 11.845711 4.420897 -7.424218 0.000000 0.000000 0.000000 5.031258 2.803575 12.633924 2.813272 -1.502764 2.839664 1.352509 -2.820624 7.176896 0.010647 0.129459 -0.045374 1.562247 -1.921503 7.756776 1.733258 -1.893993 -14.093969 0.000000 0.000000 0.000000 3.055209 -1.442928 4.327768 1.261592 -1.121240 1.684685 -20.846069 -28.708730 -32.968203 -170.323977 -84.393913 -172.115508 0.000000 0.000000 0.000000 -1.954067 0.580983 3.166242 15.037823 9.373005 0.675874 14.427723 34.156663 -32.198212 -169.221803 61.553596 -174.499667 0.000000 0.000000 0.000000 
10.807806 81.894890 -21.069958 -179.724858 -23.794257 179.768530 -1.570672 1.546000 20.133094 7.211362 -3.497825 -26.610726 3.143900 2.614090 23.686075 -1.181472 -6.993098 -8.081314 0.000000 0.000000 0.000000 2.690015 -0.088850 19.735886 -1.988876 -1.821094 -27.150280 0.644225 6.093398 26.036691 12.105438 4.157355 -7.906729 0.000000 0.000000 0.000000 5.308305 3.057672 12.061954 3.461646 -1.483456 2.046543 1.389172 -2.969836 7.238019 0.032234 0.045750 -0.030968 1.524078 -2.231975 7.800364 2.778927 -1.855242 -12.691002 0.000000 0.000000 0.000000 2.906946 -1.555904 4.456337 -0.074061 -0.937409 1.935007 -27.432625 -24.056464 -31.675610 -169.820837 -82.445028 -171.186780 0.000000 0.000000 0.000000 -2.067627 0.453387 3.227524 16.289019 8.526456 0.842346 20.568488 33.206488 -30.127124 -168.193914 62.009648 -174.009096 0.000000 0.000000 0.000000 
10.185924 81.784660 -21.571730 -179.852924 -23.243762 179.872253 -1.642095 1.052716 19.938379 6.799838 -3.421946 -26.043163 3.421025 3.560558 24.512678 -0.752459 -7.129314 -9.013683 0.000000 0.000000 0.000000 2.503110 -0.050932 19.790296 -2.274025 -0.844860 -26.823577 0.358676 6.468098 26.458375 12.205259 3.783293 -8.488951 0.000000 0.000000 0.000000 5.333232 2.888290 11.602356 4.033676 -1.415232 1.323818 1.342905 -3.051486 7.307822 0.033163 0.028479 -0.023485 1.572534 -2.229234 7.928239 3.679714 -1.612385 -11.301573 0.000000 0.000000 0.000000 2.899069 -1.600826 4.532565 -1.220745 -0.696859 1.951648 -33.632415 -18.870348 -30.098492 -168.576172 -81.209426 -170.826678 0.000000 0.000000 0.000000 -2.056334 0.346158 3.347969 17.466424 7.950915 1.094761 25.876544 32.175744 -28.412398 -167.456171 62.266832 -173.726763 0.000000 0.000000 0.000000 
9.596219 81.683037 -21.953365 -179.655586 -22.377486 179.922919 -1.600959 1.559791 20.023557 6.447025 -2.940468 -26.078118 3.532971 3.841005 25.229134 -0.592062 -7.437565 -9.610724 0.000000 0.000000 0.000000 2.392231 0.421690 19.824448 -2.456025 0.454599 -26.683628 0.078521 6.628547 26.700900 12.245617 3.451490 -8.951679 0.000000 0.000000 0.000000 5.498786 3.082404 11.260233 4.762810 -1.348724 0.720960 1.420938 -3.107693 7.366305 -0.026743 0.049474 0.022240 1.593325 -2.394415 8.034848 4.494882 -1.594699 -9.980808 0.000000 0.000000 0.000000 2.890205 -1.635645 4.622013 -2.301871 -0.489489 2.319563 -39.044250 -13.799990 -28.415344 -167.957617 -80.740308 -169.838487 0.000000 0.000000 0.000000 -2.142449 0.354699 3.409397 18.662768 7.301502 1.269249 30.521100 31.012969 -26.410771 -166.763167 62.253561 -173.426768 0.000000 0.000000 0.000000 
9.028868 81.611435 -22.189983 -179.739843 -21.612626 -179.929627 -1.586149 1.719678 19.984884 5.980298 -2.695746 -25.974164 3.547505 4.553505 25.748075 -0.462249 -7.616643 -9.917997 0.000000 0.000000 0.000000 2.587282 0.447749 19.934872 -3.206043 1.053781 -26.777898 -0.010793 7.255483 27.163174 12.247276 3.408540 -9.420076 0.000000 0.000000 0.000000 5.537094 3.304646 10.963411 5.371891 -1.339128 0.293008 1.415207 -3.189622 7.466530 0.010013 0.026184 0.052863 1.680164 -2.345703 8.202585 5.145595 -1.568995 -8.743876 0.000000 0.000000 0.000000 2.952993 -1.712914 4.741928 -3.146157 -0.322035 2.550147 -43.723726 -9.312287 -26.546879 -168.036683 -80.762138 -168.227682 0.000000 0.000000 0.000000 -2.132766 0.292343 3.492066 19.692427 6.807333 1.623343 34.219658 29.915098 -24.916655 -166.587904 62.093031 -173.568221 0.000000 0.000000 0.000000 
8.462561 81.587799 -22.253220 -179.680229 -20.789381 179.986823 -2.115414 2.062432 19.964336 6.240949 -2.164429 -25.679401 3.198237 5.053231 26.129701 -0.105718 -7.423827 -10.392648 0.000000 0.000000 0.000000 3.026847 0.961929 20.105784 -3.988037 1.384516 -26.707763 -0.074622 7.746404 27.320200 12.228673 3.432578 -9.745581 0.000000 0.000000 0.000000 5.659195 3.403435 10.873556 6.001189 -1.381187 0.163145 1.432095 -3.224022 7.539910 -0.015720 0.049754 0.043839 1.667771 -2.245710 8.381975 5.597186 -1.654669 -7.595021 0.000000 0.000000 0.000000 2.920299 -1.665660 4.863544 -3.693686 -0.038944 2.736198 -47.629334 -6.003278 -24.783522 -167.424930 -81.063431 -167.519433 0.000000 0.000000 0.000000 -2.128904 0.321473 3.599023 20.679608 6.452682 1.769358 36.748665 28.917392 -23.842876 -166.707637 61.811750 -173.966216 0.000000 0.000000 0.000000 
7.905855 81.551666 -22.143072 -179.747630 -20.158890 -179.884629 -1.249541 2.053754 19.723746 4.710940 -2.113184 -25.432247 3.066767 5.254822 26.072280 0.084073 -7.289646 -10.256238 0.000000 0.000000 0.000000 3.289549 1.151214 20.204738 -4.721027 1.528744 -26.979319 -0.143257 8.399177 27.599895 12.149126 3.559551 -9.944545 0.000000 0.000000 0.000000 5.784470 3.518759 10.676086 6.514619 -1.416461 0.120881 1.402127 -3.229091 7.685389 0.009679 0.058927 0.055896 1.674541 -2.469148 8.598002 5.736728 -1.836460 -6.654302 0.000000 0.000000 0.000000 2.923468 -1.703688 5.022958 -4.041093 -0.052549 2.871513 -50.699470 -4.140713 -23.247539 -167.060539 -81.425082 -166.858735 0.000000 0.000000 0.000000 -2.201554 0.285642 3.732930 21.540062 6.258129 2.104859 38.412369 28.395704 -23.425203 -166.870537 61.650496 -174.393854 0.000000 0.000000 0.000000 
